<svg width="18" height="18" viewBox="0 0 18 18" fill="none" xmlns="http://www.w3.org/2000/svg">
<g clip-path="url(#clip0_691_942)">
<path d="M6 17H12" stroke="#4982BD" stroke-width="1.2" stroke-linecap="round" stroke-linejoin="round"/>
<path d="M12 17C12 15.3431 10.6569 14 9 14C7.34315 14 6 15.3431 6 17" stroke="#4982BD" stroke-width="1.2" stroke-linecap="round" stroke-linejoin="round"/>
<circle cx="9" cy="3" r="2" stroke="#4982BD" stroke-width="1.2" stroke-linecap="round" stroke-linejoin="round"/>
<path d="M9 5V14" stroke="#4982BD" stroke-width="1.2" stroke-linecap="round" stroke-linejoin="round"/>
<path d="M4 11C2.34315 11 1 9.65685 1 8H7C7 9.65685 5.65685 11 4 11Z" stroke="#4982BD" stroke-width="1.2" stroke-linecap="round" stroke-linejoin="round"/>
<path d="M4 7.99956L7 2.52832" stroke="#4982BD" stroke-width="1.2" stroke-linecap="round" stroke-linejoin="round"/>
<path d="M14 7.99956L11 2.52832" stroke="#4982BD" stroke-width="1.2" stroke-linecap="round" stroke-linejoin="round"/>
<path d="M14 11C12.3431 11 11 9.65685 11 8H17C17 9.65685 15.6569 11 14 11Z" stroke="#4982BD" stroke-width="1.2" stroke-linecap="round" stroke-linejoin="round"/>
</g>
<defs>
<clipPath id="clip0_691_942">
<rect width="18" height="18" fill="white"/>
</clipPath>
</defs>
</svg>
