<svg width="14" height="14" viewBox="0 0 14 14" fill="none" xmlns="http://www.w3.org/2000/svg">
<g opacity="0.5" clip-path="url(#clip0_691_1638)">
<path fill-rule="evenodd" clip-rule="evenodd" d="M6.99954 1.77938C4.11616 1.77938 1.77871 4.11683 1.77871 7.00022C1.77871 9.8836 4.11616 12.2211 6.99954 12.2211C9.88293 12.2211 12.2204 9.8836 12.2204 7.00022C12.2204 4.11683 9.88293 1.77938 6.99954 1.77938ZM0.553711 7.00022C0.553711 3.44028 3.43961 0.554382 6.99954 0.554382C10.5595 0.554382 13.4454 3.44028 13.4454 7.00022C13.4454 10.5602 10.5595 13.4461 6.99954 13.4461C3.43961 13.4461 0.553711 10.5602 0.553711 7.00022Z" fill="#878991"/>
<path d="M6.99954 4.08313C6.67738 4.08313 6.41621 4.3443 6.41621 4.66646C6.41621 4.98863 6.67738 5.2498 6.99954 5.2498C7.32171 5.2498 7.58288 4.98863 7.58288 4.66646C7.58288 4.3443 7.32171 4.08313 6.99954 4.08313Z" fill="#363946"/>
<path d="M7.58288 6.9998C7.58288 6.67763 7.32171 6.41646 6.99954 6.41646C6.67738 6.41646 6.41621 6.67763 6.41621 6.9998V9.33313C6.41621 9.65529 6.67738 9.91646 6.99954 9.91646C7.32171 9.91646 7.58288 9.65529 7.58288 9.33313V6.9998Z" fill="#363946"/>
</g>
<defs>
<clipPath id="clip0_691_1638">
<rect width="14" height="14" fill="white"/>
</clipPath>
</defs>
</svg>
