<svg width="40" height="40" viewBox="0 0 40 40" fill="none" xmlns="http://www.w3.org/2000/svg">
<rect x="5" y="13" width="30" height="22" rx="3" fill="#FAD4E4"/>
<g clip-path="url(#clip0_473_28630)">
<path d="M20 15.5C21.3807 15.5 22.5 14.3807 22.5 13C22.5 11.6193 21.3807 10.5 20 10.5C18.6193 10.5 17.5 11.6193 17.5 13C17.5 14.3807 18.6193 15.5 20 15.5Z" stroke="#F073A8" stroke-width="2" stroke-linecap="round" stroke-linejoin="round"/>
<path d="M26.1673 15.5006C26.0564 15.752 26.0233 16.0308 26.0723 16.3011C26.1213 16.5715 26.2502 16.8209 26.4423 17.0173L26.4923 17.0673C26.6473 17.2221 26.7702 17.4059 26.8541 17.6082C26.938 17.8106 26.9811 18.0275 26.9811 18.2465C26.9811 18.4655 26.938 18.6824 26.8541 18.8847C26.7702 19.087 26.6473 19.2709 26.4923 19.4256C26.3375 19.5806 26.1537 19.7035 25.9514 19.7874C25.7491 19.8713 25.5322 19.9145 25.3131 19.9145C25.0941 19.9145 24.8772 19.8713 24.6749 19.7874C24.4726 19.7035 24.2888 19.5806 24.134 19.4256L24.084 19.3756C23.8876 19.1835 23.6381 19.0547 23.3678 19.0056C23.0975 18.9566 22.8187 18.9897 22.5673 19.1006C22.3208 19.2063 22.1106 19.3817 21.9626 19.6053C21.8145 19.8288 21.7351 20.0908 21.734 20.359V20.5006C21.734 20.9427 21.5584 21.3666 21.2458 21.6792C20.9333 21.9917 20.5093 22.1673 20.0673 22.1673C19.6253 22.1673 19.2014 21.9917 18.8888 21.6792C18.5762 21.3666 18.4007 20.9427 18.4007 20.5006V20.4256C18.3942 20.1498 18.3049 19.8823 18.1444 19.6579C17.9839 19.4335 17.7596 19.2626 17.5007 19.1673C17.2493 19.0564 16.9705 19.0233 16.7002 19.0723C16.4298 19.1213 16.1804 19.2502 15.984 19.4423L15.934 19.4923C15.7792 19.6473 15.5954 19.7702 15.3931 19.8541C15.1907 19.938 14.9738 19.9811 14.7548 19.9811C14.5358 19.9811 14.3189 19.938 14.1166 19.8541C13.9143 19.7702 13.7304 19.6473 13.5757 19.4923C13.4207 19.3375 13.2978 19.1537 13.2139 18.9514C13.13 18.7491 13.0868 18.5322 13.0868 18.3131C13.0868 18.0941 13.13 17.8772 13.2139 17.6749C13.2978 17.4726 13.4207 17.2888 13.5757 17.134L13.6257 17.084C13.8178 16.8876 13.9466 16.6381 13.9957 16.3678C14.0447 16.0975 14.0116 15.8187 13.9007 15.5673C13.795 15.3208 13.6196 15.1106 13.396 14.9626C13.1725 14.8145 12.9105 14.7351 12.6423 14.734H12.5007C12.0586 14.734 11.6347 14.5584 11.3221 14.2458C11.0096 13.9333 10.834 13.5093 10.834 13.0673C10.834 12.6253 11.0096 12.2014 11.3221 11.8888C11.6347 11.5762 12.0586 11.4007 12.5007 11.4007H12.5757C12.8515 11.3942 13.119 11.3049 13.3434 11.1444C13.5678 10.9839 13.7387 10.7596 13.834 10.5007C13.9449 10.2493 13.978 9.97049 13.929 9.70016C13.88 9.42983 13.7511 9.18038 13.559 8.98398L13.509 8.93398C13.354 8.7792 13.2311 8.59538 13.1472 8.39305C13.0633 8.19072 13.0202 7.97384 13.0202 7.75482C13.0202 7.53579 13.0633 7.31891 13.1472 7.11658C13.2311 6.91425 13.354 6.73044 13.509 6.57565C13.6638 6.42069 13.8476 6.29776 14.0499 6.21388C14.2522 6.13001 14.4691 6.08684 14.6882 6.08684C14.9072 6.08684 15.1241 6.13001 15.3264 6.21388C15.5287 6.29776 15.7125 6.42069 15.8673 6.57565L15.9173 6.62565C16.1137 6.81776 16.3632 6.94664 16.6335 6.99565C16.9038 7.04467 17.1826 7.01158 17.434 6.90065H17.5007C17.7471 6.79501 17.9573 6.61961 18.1054 6.39604C18.2535 6.17246 18.3329 5.91047 18.334 5.64232V5.50065C18.334 5.05862 18.5096 4.6347 18.8221 4.32214C19.1347 4.00958 19.5586 3.83398 20.0007 3.83398C20.4427 3.83398 20.8666 4.00958 21.1792 4.32214C21.4917 4.6347 21.6673 5.05862 21.6673 5.50065V5.57565C21.6684 5.84381 21.7478 6.1058 21.8959 6.32937C22.044 6.55295 22.2542 6.72835 22.5006 6.83398C22.752 6.94491 23.0308 6.978 23.3011 6.92899C23.5715 6.87997 23.8209 6.7511 24.0173 6.55898L24.0673 6.50898C24.2221 6.35402 24.4059 6.23109 24.6082 6.14722C24.8106 6.06334 25.0275 6.02017 25.2465 6.02017C25.4655 6.02017 25.6824 6.06334 25.8847 6.14722C26.087 6.23109 26.2709 6.35402 26.4256 6.50898C26.5806 6.66377 26.7035 6.84759 26.7874 7.04992C26.8713 7.25225 26.9145 7.46912 26.9145 7.68815C26.9145 7.90718 26.8713 8.12405 26.7874 8.32638C26.7035 8.52871 26.5806 8.71253 26.4256 8.86732L26.3756 8.91732C26.1835 9.11372 26.0547 9.36316 26.0056 9.63349C25.9566 9.90382 25.9897 10.1826 26.1006 10.434V10.5007C26.2063 10.7471 26.3817 10.9573 26.6053 11.1054C26.8288 11.2535 27.0908 11.3329 27.359 11.334H27.5006C27.9427 11.334 28.3666 11.5096 28.6792 11.8221C28.9917 12.1347 29.1673 12.5586 29.1673 13.0007C29.1673 13.4427 28.9917 13.8666 28.6792 14.1792C28.3666 14.4917 27.9427 14.6673 27.5006 14.6673H27.4256C27.1575 14.6684 26.8955 14.7478 26.6719 14.8959C26.4484 15.044 26.273 15.2542 26.1673 15.5006V15.5006Z" stroke="#F073A8" stroke-width="2" stroke-linecap="round" stroke-linejoin="round"/>
</g>
<rect x="3" y="35" width="34" height="2" rx="1" fill="#F073A8"/>
<path d="M12 30L28 30" stroke="#F073A8" stroke-width="2" stroke-linecap="round" stroke-linejoin="round"/>
<defs>
<clipPath id="clip0_473_28630">
<rect width="20" height="20" fill="white" transform="translate(10 3)"/>
</clipPath>
</defs>
</svg>
