<svg width="40" height="40" viewBox="0 0 40 40" fill="none" xmlns="http://www.w3.org/2000/svg">
<rect x="37" y="37" width="21" height="15" rx="3" transform="rotate(180 37 37)" fill="#DCDFFC"/>
<rect x="13" y="37" width="10" height="26" rx="3" transform="rotate(180 13 37)" fill="#DCDFFC"/>
<path d="M20 10.5L20 14.5C20 16.1569 21.3431 17.5 23 17.5L28 17.5L30 17.5C31.6569 17.5 33 16.1569 33 14.5L33 10" stroke="#9199F8" stroke-width="2" stroke-linecap="round" stroke-linejoin="round"/>
<path d="M26 26.5L26 17.5" stroke="#9199F8" stroke-width="2" stroke-linecap="round" stroke-linejoin="round"/>
<circle cx="26" cy="30" r="3" transform="rotate(-90 26 30)" stroke="#9199F8" stroke-width="2" stroke-linecap="round" stroke-linejoin="round"/>
<circle cx="20" cy="7" r="3" transform="rotate(-90 20 7)" stroke="#9199F8" stroke-width="2" stroke-linecap="round" stroke-linejoin="round"/>
<circle cx="33" cy="7" r="3" transform="rotate(-90 33 7)" stroke="#9199F8" stroke-width="2" stroke-linecap="round" stroke-linejoin="round"/>
</svg>
