<svg width="40" height="40" viewBox="0 0 40 40" fill="none" xmlns="http://www.w3.org/2000/svg">
<circle cx="11" cy="23" r="7" stroke="#8D51D8" stroke-width="2"/>
<circle cx="18.5" cy="13.5" r="10.5" fill="#DBC9F2"/>
<circle cx="25" cy="25" r="12" fill="#8D51D8"/>
<path d="M25.6113 17.5723L25.6113 32.4294" stroke="#DBC9F2" stroke-width="2" stroke-linecap="round" stroke-linejoin="round"/>
<path d="M29.1833 20H23.8262C23.1631 20 22.5272 20.2634 22.0584 20.7322C21.5896 21.2011 21.3262 21.837 21.3262 22.5C21.3262 23.163 21.5896 23.7989 22.0584 24.2678C22.5272 24.7366 23.1631 25 23.8262 25H27.3976C28.0606 25 28.6965 25.2634 29.1654 25.7322C29.6342 26.2011 29.8976 26.837 29.8976 27.5C29.8976 28.163 29.6342 28.7989 29.1654 29.2678C28.6965 29.7366 28.0606 30 27.3976 30H21.3262" stroke="#DBC9F2" stroke-width="2" stroke-linecap="round" stroke-linejoin="round"/>
</svg>
