<svg width="40" height="40" viewBox="0 0 40 40" fill="none" xmlns="http://www.w3.org/2000/svg">
<circle cx="25.5" cy="13.5" r="7.5" fill="#F6F1FB" stroke="#8D51D8" stroke-width="2"/>
<circle cx="16.5" cy="11.5" r="9.5" fill="#F6F1FB"/>
<circle cx="16.5" cy="11.5" r="9.5" fill="#8D51D8"/>
<rect x="3" y="37" width="26" height="34" rx="3" transform="rotate(-90 3 37)" fill="#DBC9F2"/>
<path d="M37 18H21.8C20.1198 18 19.2798 18 18.638 18.327C18.0735 18.6146 17.6146 19.0735 17.327 19.638C17 20.2798 17 21.1198 17 22.8V25.2C17 26.8802 17 27.7202 17.327 28.362C17.6146 28.9265 18.0735 29.3854 18.638 29.673C19.2798 30 20.1198 30 21.8 30H37V18Z" fill="#8D51D8"/>
<circle cx="3" cy="3" r="3" transform="matrix(-1 0 0 1 34 21)" stroke="#DBC9F2" stroke-width="2" stroke-linecap="round" stroke-linejoin="round"/>
</svg>
