<svg width="40" height="40" viewBox="0 0 40 40" fill="none" xmlns="http://www.w3.org/2000/svg">
<rect x="3" y="22" width="23" height="15" rx="3" fill="#DBC9F2"/>
<rect x="25" y="3" width="12" height="12" rx="3" fill="#DBC9F2"/>
<circle cx="13" cy="14" r="3" stroke="#8D51D8" stroke-width="2" stroke-linecap="round" stroke-linejoin="round"/>
<circle cx="27" cy="18" r="3" stroke="#8D51D8" stroke-width="2" stroke-linecap="round" stroke-linejoin="round"/>
<path d="M33.9082 7.4193C34.1397 6.91785 33.9208 6.32372 33.4193 6.09228C32.9179 5.86084 32.3237 6.07973 32.0923 6.58118L28.109 15.2118C28.7801 15.4789 29.3321 15.9813 29.6631 16.6171L33.9082 7.4193Z" fill="#8D51D8"/>
<path d="M24.6124 19.8165C24.2283 19.3124 24.0003 18.6829 24.0003 18.0002C24.0003 17.7986 24.0201 17.6016 24.0581 17.4111L16.2932 13.5287C16.1748 13.4695 16.0549 13.4167 15.934 13.3702C15.9774 13.5734 16.0003 13.7841 16.0003 14.0002C16.0003 14.5202 15.868 15.0094 15.6352 15.4357L23.7846 19.5104C24.0543 19.6453 24.3318 19.7468 24.6124 19.8165Z" fill="#8D51D8"/>
<path d="M12.3997 16.9401C11.7077 16.7995 11.1022 16.4207 10.6726 15.893L6.08111 26.6063C5.86356 27.114 6.09871 27.7018 6.60634 27.9194C7.11397 28.1369 7.70185 27.9018 7.9194 27.3942L12.3997 16.9401Z" fill="#8D51D8"/>
</svg>
