<svg width="40" height="40" viewBox="0 0 40 40" fill="none" xmlns="http://www.w3.org/2000/svg">
<rect x="27" y="33" width="14" height="14" rx="3" transform="rotate(180 27 33)" fill="#D1F0E4"/>
<rect x="29" y="3" width="13" height="26" rx="3" transform="rotate(90 29 3)" fill="#D1F0E4"/>
<path d="M20 29L20 8" stroke="#62CCA6" stroke-width="2" stroke-linecap="round" stroke-linejoin="round"/>
<path d="M16 10L20 6L24 10" stroke="#62CCA6" stroke-width="2" stroke-linecap="round" stroke-linejoin="round"/>
<path d="M10 27C10 27 20 27 20 20" stroke="#62CCA6" stroke-width="2" stroke-linecap="round" stroke-linejoin="round"/>
<path d="M30 27C30 27 20 27 20 20" stroke="#62CCA6" stroke-width="2" stroke-linecap="round" stroke-linejoin="round"/>
<circle cx="20" cy="33" r="3" transform="rotate(-90 20 33)" stroke="#62CCA6" stroke-width="2" stroke-linecap="round" stroke-linejoin="round"/>
<circle cx="7" cy="27" r="3" transform="rotate(-90 7 27)" stroke="#62CCA6" stroke-width="2" stroke-linecap="round" stroke-linejoin="round"/>
<circle cx="33" cy="27" r="3" transform="rotate(-90 33 27)" stroke="#62CCA6" stroke-width="2" stroke-linecap="round" stroke-linejoin="round"/>
</svg>
